<?xml version="1.0" encoding="utf-8"?>
<!-- Generator: Adobe Illustrator 18.1.0, SVG Export Plug-In . SVG Version: 6.00 Build 0)  -->
<!DOCTYPE svg PUBLIC "-//W3C//DTD SVG 1.1//EN" "http://www.w3.org/Graphics/SVG/1.1/DTD/svg11.dtd">
<svg version="1.1" id="Layer_1" xmlns="http://www.w3.org/2000/svg" xmlns:xlink="http://www.w3.org/1999/xlink" x="0px" y="0px"
	 width="36px" height="36px" viewBox="0 0 36 36" enable-background="new 0 0 36 36" xml:space="preserve">
<g>
	<path fill="#2D3942" d="M28,15v12.5c0,0.4-0.1,0.8-0.4,1.1c-0.3,0.3-0.6,0.4-1.1,0.4h-17c-0.4,0-0.8-0.1-1.1-0.4
		C8.1,28.3,8,27.9,8,27.5v-21c0-0.4,0.1-0.8,0.4-1.1C8.7,5.1,9.1,5,9.5,5H18v8.5c0,0.4,0.1,0.8,0.4,1.1s0.6,0.4,1.1,0.4H28z
		 M24,20.5v-1c0-0.1,0-0.3-0.1-0.4S23.6,19,23.5,19h-11c-0.1,0-0.3,0-0.4,0.1C12,19.2,12,19.4,12,19.5v1c0,0.1,0,0.3,0.1,0.4
		c0.1,0.1,0.2,0.1,0.4,0.1h11c0.1,0,0.3,0,0.4-0.1S24,20.6,24,20.5z M24,24.5v-1c0-0.1,0-0.3-0.1-0.4S23.6,23,23.5,23h-11
		c-0.1,0-0.3,0-0.4,0.1C12,23.2,12,23.4,12,23.5v1c0,0.1,0,0.3,0.1,0.4c0.1,0.1,0.2,0.1,0.4,0.1h11c0.1,0,0.3,0,0.4-0.1
		S24,24.6,24,24.5z M28,13h-8V5c0.9,0.2,1.5,0.5,2.1,1l4.9,4.9C27.5,11.5,27.8,12.1,28,13z"/>
</g>
<g>
</g>
<g>
</g>
<g>
</g>
<g>
</g>
<g>
</g>
<g>
</g>
<g>
</g>
<g>
</g>
<g>
</g>
<g>
</g>
<g>
</g>
<g>
</g>
<g>
</g>
<g>
</g>
<g>
</g>
</svg>
