<?xml version="1.0" encoding="utf-8"?>
<!-- Generator: Adobe Illustrator 18.1.0, SVG Export Plug-In . SVG Version: 6.00 Build 0)  -->
<!DOCTYPE svg PUBLIC "-//W3C//DTD SVG 1.1//EN" "http://www.w3.org/Graphics/SVG/1.1/DTD/svg11.dtd">
<svg version="1.1" id="Layer_1" xmlns="http://www.w3.org/2000/svg" xmlns:xlink="http://www.w3.org/1999/xlink" x="0px" y="0px"
	 width="36px" height="36px" viewBox="0 0 36 36" enable-background="new 0 0 36 36" xml:space="preserve">
<g>
	<path fill="#2D3942" d="M24.4,19.9v4c0,1-0.3,1.8-1,2.5c-0.7,0.7-1.6,1-2.5,1H10.5c-1,0-1.8-0.3-2.5-1c-0.7-0.7-1-1.6-1-2.5V13.6
		c0-1,0.3-1.8,1-2.5c0.7-0.7,1.6-1,2.5-1h8.7c0.1,0,0.2,0,0.3,0.1s0.2,0.2,0.2,0.3v0.8c0,0.1,0,0.2-0.1,0.3
		c-0.1,0.1-0.2,0.1-0.3,0.1h-8.7c-0.5,0-1,0.2-1.4,0.6c-0.3,0.3-0.6,0.9-0.6,1.4v10.4c0,0.5,0.2,1,0.6,1.4c0.3,0.3,0.9,0.6,1.4,0.6
		H21c0.5,0,1-0.2,1.4-0.6c0.3-0.3,0.6-0.9,0.6-1.4v-4c0-0.1,0-0.2,0.1-0.3c0.1-0.1,0.2-0.1,0.3-0.1H24c0.1,0,0.2,0,0.3,0.1
		C24.4,19.7,24.4,19.8,24.4,19.9z M29.1,9.2v6.4c0,0.2-0.1,0.4-0.3,0.5c-0.2,0.1-0.3,0.3-0.5,0.3s-0.4-0.1-0.5-0.3l-2.2-2.2L17.6,22
		c-0.1,0.1-0.2,0.1-0.3,0.1c-0.1,0-0.2,0-0.3-0.1l-1.4-1.4c-0.1-0.1-0.1-0.2-0.1-0.3s0-0.2,0.1-0.3l8.1-8.1l-2.3-2.2
		c-0.2-0.2-0.3-0.3-0.3-0.5c0-0.2,0.1-0.4,0.3-0.5c0.2-0.2,0.3-0.3,0.5-0.3h6.4c0.2,0,0.4,0.1,0.5,0.3S29.1,9,29.1,9.2z"/>
</g>
</svg>
